Patient4_TMGait_0pt7_01_right_34_EMG.mot
version=1
nRows=30
nColumns=33
inDegrees=no
endheader
time	1LAddLong	2LGlutMax	3LGlutMed	4LIliopsoas	5LSemiMemb	6LBicFemLong	7LRecFem	8LVastMed	9LVastLat	10LGasMed	11LTibAnt	12lTibPost	13LPeroneusLong	14LSol	15LExtDigLong	16LFlexDigLong	17RAddLong	18RGlutMax	19RGlutMed	20RIliopsoas	21RSemiMemb	22RBicFemLong	23RRecFem	24RVastMed	25RVastLat	26RGasMed	27RTibAnt	28RTibPost	29RPeroneusLong	30RSol	31RExtDigLong	32RFlexDigLong
38.71	0.006409	-0.045471	-0.089569	0.001984	0.046539	-0.046692	0.020294	0.000763	0.21652	0.024261	0.086975	-0.007782	-0.64636	-0.037994	0.47348	-0.002289	0.029907	0.18082	-0.048218	0.11307	0.18601	0.090332	0.59036	-0.23544	-0.12711	0.000458	0.55389	0.000153	0.1947	-0.045013	-0.004578	-0.00412
38.711	0.002136	-0.029602	-0.008392	0.026703	0.11719	-0.16327	0.13855	0.014648	0.15152	0.082703	-0.03006	-0.019684	-0.86243	-0.10681	0.20096	-0.011139	0.036316	0.22598	0.21088	0.19226	0.20737	0.086975	0.77362	-0.25116	-0.12711	-0.009003	0.41901	-0.002289	0.47333	0.061798	-0.000916	-0.007782
38.712	-0.020905	-0.010834	0.026093	0.008087	0.074005	0.14236	0.20401	0.018005	0.068207	0.042114	-0.063629	-0.008545	-0.10498	-0.076904	0.23666	-0.009918	0.00885	0.25024	0.1152	0.13672	0.21729	0.089874	1.0391	-0.22781	-0.1503	-0.012817	-0.13031	-0.001984	0.6221	0.15442	0.000458	-0.005341
38.713	-0.009155	-0.017242	0.001068	-0.010223	0.02655	0.59967	0.17868	0.023193	-0.020142	0.015259	0.034027	-0.010529	0.036163	0.026093	-0.49713	0.004883	0.004578	0.15167	-0.14862	0.059814	0.2153	0.092468	0.64194	-0.1915	-0.12131	-0.009155	-0.45212	-0.005341	0.23773	0.13168	-0.00061	0.000458
38.714	-0.007782	-0.028992	0.058136	-0.018311	0.003204	0.76935	0.10819	0.003815	-0.03479	0.003204	0.096741	-0.00824	-0.088654	0.064392	-0.36926	0.001678	-0.021667	0.12573	-0.13214	-0.091248	0.19791	0.087738	0.001221	-0.24429	-0.12772	-0.006104	-0.2002	-0.002899	-0.24735	0.067749	-0.002899	0.001526
38.715	-0.005035	-0.037842	0.051117	0.012512	-0.012054	0.94757	0.062256	0.003815	-0.06073	-0.025024	0.20752	-0.008392	-0.027924	0.062561	-0.25482	0.001984	-0.041351	0.025024	-0.43015	-0.14923	0.1857	0.11078	-0.53451	-0.33173	-0.12665	-0.008392	0.027161	-0.002136	-0.45456	0.065918	-0.001984	0.004578
38.716	-0.013428	-0.031586	-0.014343	0.019226	-0.016479	0.93368	-0.096436	0.014954	-0.029755	0.019836	-0.015259	-0.005188	-0.15366	-0.007782	-0.19409	-0.010071	-0.057983	0.027771	-0.51331	-0.13123	0.18646	0.11093	-0.63705	-0.33279	-0.066833	-0.003052	0.36011	-0.001068	-0.20538	0.01236	0.003204	0.00473
38.717	-0.004578	-0.080109	-0.070953	0.008545	-0.0177	0.78323	-0.12558	0.016937	0.054321	0.02121	0.050812	-0.005341	-0.59692	-0.27069	-0.13184	-0.003052	-0.050812	-0.062714	-0.46845	-0.16937	0.1767	0.12665	-0.63446	-0.29358	-0.03479	-0.008698	0.69809	0.001831	-0.038147	0.007629	0.001373	0.002289
38.718	0.002747	-0.045929	0.079651	0.011749	-0.003967	-0.25803	-0.061798	-0.005798	0.17685	-0.016785	0.11536	-0.009918	0.27161	-0.1358	0.08316	0.000153	-0.035095	-0.005951	-0.64651	-0.18433	0.20294	0.15015	-0.54642	-0.24689	-0.041199	-0.013733	0.79926	-0.003357	-0.16678	0.085602	-0.001678	-0.00351
38.719	0.003662	-0.027618	-0.004578	0.016174	0.005188	-1.0844	-0.030212	-0.043182	0.26215	-0.0737	0.10971	0.00473	0.89477	0.14038	0.2623	0.007629	-0.018311	0.016174	0.014801	-0.1091	0.18845	0.19119	-0.24338	-0.21423	-0.0383	-0.013733	0.59601	-0.003052	-0.028992	0.06546	-0.001831	-0.005493
38.72	-0.00824	-0.04837	-0.029144	0.014343	0.010986	-0.52216	0.10834	-0.001068	0.20462	-0.042572	0.029297	-0.014343	-0.11612	0.12878	-0.11459	-0.013123	-0.002441	-0.027313	0.25284	0.041809	0.17731	0.25101	0.16876	-0.16403	-0.050049	-0.000458	0.073395	0.005188	0.16617	-0.15686	0.000458	-0.002289
38.721	-0.005188	-0.062408	-0.014954	0.002747	-0.001221	-0.2858	0.12253	0.008698	0.21576	0.056458	0.039063	-0.007629	0.045166	-0.14755	-0.27466	-0.010071	-0.00473	-0.051117	0.22263	0.055237	0.16602	0.32028	0.41184	-0.10452	-0.020294	-0.00473	-0.37247	-0.001831	0.21515	-0.21393	-0.001831	-0.005646
38.722	0.007782	-0.070496	-0.045166	-0.001984	-0.003815	-0.6575	0.044403	-0.002594	0.067444	-0.004425	0.093231	-0.00824	-0.29221	-0.10452	0.55924	0.005798	-0.002136	-0.10986	-0.015717	0.028381	0.15427	0.4303	0.62241	-0.040436	-0.005798	0.000763	-0.76691	-0.001831	0.15564	-0.16815	0.000305	-0.004883
38.723	0.011292	-0.046082	-0.10086	0.005035	-0.010529	-0.53101	0.024414	-0.006104	-0.072937	0.018768	0.027771	-0.000153	-0.056915	-0.046387	0.19348	0.010071	0.005951	-0.1593	-0.08728	0.12299	0.14893	0.58548	0.74478	0.072784	-0.016327	0.008392	-0.47104	-0.001831	0.040588	-0.2356	-0.002747	-0.009003
38.724	-0.004272	-0.054321	-0.12436	0.000763	-0.091553	-0.36758	0.007935	0.005035	-0.14557	0.019531	-0.024567	-0.009308	-0.12375	0.05188	0.038147	-0.006409	0.007477	-0.098724	-0.16647	0.28717	0.13534	0.76324	0.60928	0.18646	-0.013428	0.016632	-0.33096	-0.002899	0.090179	-0.22186	0.000916	-0.006561
38.725	-0.007324	-0.039673	-0.13702	0.002289	-0.07431	-0.24124	0.062561	0.001221	-0.10727	0.027008	0.066986	-0.007477	-0.48966	-0.017395	-0.16892	-0.003357	0.007324	-0.11093	-0.17807	0.17929	0.1239	0.87647	0.35538	0.17975	0.001984	0.016327	-0.30685	-0.00061	0.055389	-0.079803	-0.002441	-0.00946
38.726	0.003967	-0.035553	-0.078125	-0.005188	-0.042877	-0.18234	0.064392	0.010834	-0.059814	0.026245	0.06073	-0.006561	-0.11887	-0.10407	-0.095825	0.004272	0.001221	-0.10925	-0.034485	0.091858	0.1181	0.82596	0.1561	0.11139	-0.001221	0.013733	-0.19257	-0.002747	-0.011902	-0.023499	-0.001831	-0.004578
38.727	0.010529	-0.035095	0.017395	-0.010986	0.027008	-0.13092	0.078735	0.009918	-0.029755	0.027161	0.010986	-0.000763	0.007629	-0.28381	-0.076141	0.005341	0.006104	-0.12207	0.036469	0.013123	0.10025	0.70862	0.25345	0.029297	-0.018311	-0.00412	-0.11536	-0.001831	-0.098419	0.034943	0.001068	-0.002747
38.728	-0.003357	-0.046234	-0.065155	-0.02243	0.03891	-0.087128	0.10223	0.013123	-0.010071	0.008545	-0.061646	-0.00412	0.63141	-0.24933	-0.12558	-0.002899	0.015411	-0.11047	-0.010376	-0.042419	0.091553	0.57999	0.34637	0.005951	-0.030212	-0.00473	0.11017	-0.003815	0.03891	0.005188	-0.004272	-0.002136
38.729	-0.003357	-0.075684	0.065308	0.003967	0.028992	-0.016785	0.1088	0.006409	0.035706	0.061798	-0.063019	-0.003204	0.55603	-0.25757	-0.13901	0.017548	-0.014496	-0.13321	-0.1239	-0.024719	0.072327	0.48966	0.40222	0.031281	-0.054169	-0.018158	0.24216	-0.004883	0.098877	0.079803	-0.001068	-0.001373
38.73	0.009003	-0.10757	0.00351	0.005035	0.041656	0.01358	0.090027	0.006866	0.029297	0.12726	0.030365	-0.005493	-0.42694	-0.23163	0.027008	0.019073	-0.03418	-0.18723	-0.13534	0.036621	0.074463	0.39978	0.25543	0.027924	-0.057373	-0.018005	0.15793	-0.000916	-0.035858	0.20752	-0.000763	-0.002441
38.731	0.018768	-0.11978	-0.055237	0.011902	0.061951	0.03067	0.10941	0.00946	0.018616	0.11108	0.0354	-0.004578	-0.25436	-0.14771	0.069275	0.003815	-0.047302	-0.16327	-0.15442	0.090027	0.095978	0.33264	0.21042	-0.041046	-0.028687	-0.019226	0.10788	-0.003204	-0.085297	0.24551	-0.000916	0.001678
38.732	0.009308	-0.11429	-0.067596	0.014191	0.046387	0.046539	0.14038	0.010376	0.029602	0.12558	0.081024	-0.004425	-0.051422	-0.2655	-0.067596	0.001068	-0.040741	-0.17761	-0.085602	0.086365	0.076752	0.2507	0.10147	-0.065308	-0.02182	-0.013428	0.17868	-0.00061	-0.10269	0.19165	-0.001526	0.00061
38.733	0.006866	-0.12512	-0.11307	0.013885	0.017853	0.089722	0.19928	0.01236	0.024109	0.10834	0.085297	-0.006866	0.16922	-0.30334	-0.031433	0.002136	-0.027466	-0.11398	-0.03006	0.032806	0.07843	0.16785	0.039368	-0.033722	-0.013428	-0.002441	0.16663	-0.001678	-0.086517	0.079651	-0.001373	0.013428
38.734	-0.001221	-0.12955	-0.06546	0.011444	0.017395	0.097656	0.21194	0.013733	0.017548	-0.028992	-0.044861	-0.00351	0.30456	-0.016632	0.21637	0.008545	0.029602	-0.12665	0.000916	-0.020599	0.092926	0.1004	-0.17029	-0.054626	-0.02243	0.003815	0.20599	-0.001221	-0.011292	-0.02243	-0.001373	-0.002441
38.735	-0.007782	-0.12253	-0.021057	-0.000153	0.029907	0.093231	0.14633	0.030823	-0.022125	-0.15533	-0.13641	-0.001678	0.25665	-0.14969	0.10178	-0.007629	0.071716	-0.19882	-0.034027	-0.050354	0.093079	0.028229	-0.22598	-0.10117	-0.018005	0.006866	-0.088196	-0.003052	0.044403	-0.066986	-0.004272	-0.002289
38.736	-0.003357	-0.12711	-0.10117	0.018158	0.043488	0.058899	0.10635	0.020294	-0.006256	-0.084839	-0.074005	-0.006561	-0.24597	-0.092773	0.1268	-0.020599	0.12024	-0.19684	-0.036011	-0.049286	0.090179	-0.036469	-0.2066	-0.089569	-0.025635	-0.000305	-0.34836	-0.001984	0.047607	-0.070038	-0.001984	-0.001373
38.737	0.002441	-0.094147	-0.09079	0.007019	0.034943	0.08255	0.12436	0.018921	-0.082397	-0.079041	-0.037231	-0.008698	-0.25696	0.057526	0.14191	-0.004272	0.13794	-0.17487	0.015411	0.009308	0.044861	-0.062256	-0.16907	-0.1265	-0.026855	-0.00412	-0.09903	-0.001221	-0.019836	-0.10895	-0.004425	-0.004578
38.738	-0.002747	-0.075226	-0.081482	-0.007019	-0.025635	0.20691	0.10788	0.016327	-0.17425	-0.067291	-0.004272	0.001984	-0.18021	-0.073395	0.028076	-0.002899	0.11871	-0.14954	0.1355	0.065308	0.049286	-0.10071	-0.059662	-0.15091	-0.043945	-0.009918	0.22568	-0.012665	-0.083618	-0.071106	-0.001831	-0.001678
38.739	0.00824	-0.058746	-0.060577	-0.013733	-0.081329	0.1915	0.12405	0.018921	-0.17502	-0.035553	0.001373	0.001984	-0.16357	-0.019989	-0.057526	-0.002289	0.15182	-0.14465	0.18997	0.059509	0.057526	-0.12726	-0.13473	-0.2005	-0.046082	-0.008698	0.70023	-0.002747	-0.030212	-0.016937	-0.001373	0.002747
